<?xml version="1.0" encoding="UTF-8"?>
<svg id="Layer_1" data-name="Layer 1" xmlns="http://www.w3.org/2000/svg" viewBox="0 0 683 683">
  <defs>
    <style>
      .cls-1 {
        stroke-width: 0px;
      }
    </style>
  </defs>
  <path class="cls-1" d="M442.52,341.5l219.56-219.56c27.9-27.9,27.9-73.12,0-101.02-27.9-27.9-73.12-27.9-101.02,0l-219.56,219.56L121.94,20.92c-27.9-27.9-73.12-27.9-101.02,0-27.9,27.9-27.9,73.13,0,101.02l219.56,219.56L20.92,561.06c-27.9,27.89-27.9,73.12,0,101.02,13.95,13.95,32.23,20.92,50.51,20.92s36.56-6.97,50.51-20.92l219.56-219.56,219.56,219.56c13.95,13.95,32.23,20.92,50.51,20.92s36.56-6.97,50.51-20.92c27.9-27.9,27.9-73.13,0-101.02l-219.56-219.56Z"/>
</svg>