<?xml version="1.0" encoding="UTF-8"?>
<svg id="Layer_1" data-name="Layer 1" xmlns="http://www.w3.org/2000/svg" viewBox="0 0 1000 683.11">
  <defs>
    <style>
      .cls-1 {
        stroke-width: 0px;
      }
    </style>
  </defs>
  <path class="cls-1" d="M313.72,683.11c-.84,0-1.69-.01-2.54-.05-24.18-.83-46.42-13.49-59.42-33.88-81.3-127.53-223.76-246.37-225.19-247.56-31.21-25.89-35.56-72.18-9.69-103.41,25.87-31.23,72.13-35.59,103.38-9.74,5.32,4.4,108.48,90.3,197.36,201.34C407.64,388.08,594.75,199.43,886.82,11.68c34.12-21.94,79.56-12.06,101.5,22.07,21.94,34.12,12.06,79.57-22.07,101.5-396.42,254.84-591.53,515.45-593.45,518.05-13.88,18.77-35.84,29.82-59.09,29.82Z"/>
</svg>